#Comment line ignore any data following # character 
#Hierarchical Translation and Rotation (.htr) file 
[Header]	
#Header keywords are followed by a single value 
FileType HTR		#Single word string
DataType HTRS		#Translation followed by rotation and scale data
FileVersion 1		#integer
NumSegments 84		#integer
NumFrames 2		#integer
DataFrameRate 30		#integer, data frame rate in this file
EulerRotationOrder ZYX
CalibrationUnits mm
RotationUnits Degrees
GlobalAxisofGravity Y
BoneLengthAxis Y
ScaleFactor 1.00
[SegmentNames&Hierarchy]
#CHILD	PARENT
MASTER GLOBAL
root MASTER
chest root
L_mid_tent01 root
R_mid_tent01 root
spine01 root
Bip01_Neck chest
L_humerus chest
R_humerus chest
weapon_bone chest
Bip01_Head Bip01_Neck
eye_left_bone Bip01_Head
eye_right_bone Bip01_Head
L_forearm L_humerus
L_front_hand L_forearm
L_weapon_bone L_forearm
L_front_hand01_01 L_front_hand
L_front_hand02_01 L_front_hand
L_front_hand03_01 L_front_hand
L_front_hand01_02 L_front_hand01_01
L_front_hand02_02 L_front_hand02_01
L_front_hand03_02 L_front_hand03_01
R_forearm R_humerus
R_front_hand R_forearm
R_weapon_bone R_forearm
R_front_hand01_01 R_front_hand
R_front_hand02_01 R_front_hand
R_front_hand03_01 R_front_hand
R_front_hand01_02 R_front_hand01_01
R_front_hand02_02 R_front_hand02_01
R_front_hand03_02 R_front_hand03_01
null_rope01_connect L_mid_tent01
Rope1_Seg01 null_rope01_connect
Rope1_Seg02 Rope1_Seg01
Rope1_Seg03 Rope1_Seg02
Rope1_Seg04 Rope1_Seg03
Rope1_Seg05 Rope1_Seg04
Rope1_Seg06 Rope1_Seg05
Rope1_Seg07 Rope1_Seg06
Rope1_Seg09 Rope1_Seg07
L_mid_hand01 Rope1_Seg09
L_mid_hand02 Rope1_Seg09
L_mid_hand03 Rope1_Seg09
null_rope02_connect R_mid_tent01
Rope2_Seg01 null_rope02_connect
Rope2_Seg02 Rope2_Seg01
Rope2_Seg03 Rope2_Seg02
Rope2_Seg04 Rope2_Seg03
Rope2_Seg05 Rope2_Seg04
Rope2_Seg06 Rope2_Seg05
Rope2_Seg07 Rope2_Seg06
Rope2_Seg09 Rope2_Seg07
R_mid_hand01 Rope2_Seg09
R_mid_hand02 Rope2_Seg09
R_mid_hand03 Rope2_Seg09
spine02 spine01
spine03 spine02
pelvis spine03
null_rope03_connect pelvis
null_rope04_connect pelvis
Rope3_Seg01 null_rope03_connect
Rope3_Seg02 Rope3_Seg01
Rope3_Seg03 Rope3_Seg02
Rope3_Seg04 Rope3_Seg03
Rope3_Seg05 Rope3_Seg04
Rope3_Seg06 Rope3_Seg05
Rope3_Seg07 Rope3_Seg06
Rope3_Seg08 Rope3_Seg07
Rope3_Seg09 Rope3_Seg08
R_rear_hand01 Rope3_Seg09
R_rear_hand02 Rope3_Seg09
R_rear_hand03 Rope3_Seg09
Rope4_Seg01 null_rope04_connect
Rope4_Seg02 Rope4_Seg01
Rope4_Seg03 Rope4_Seg02
Rope4_Seg04 Rope4_Seg03
Rope4_Seg05 Rope4_Seg04
Rope4_Seg06 Rope4_Seg05
Rope4_Seg07 Rope4_Seg06
Rope4_Seg08 Rope4_Seg07
Rope4_Seg09 Rope4_Seg08
L_rear_hand01 Rope4_Seg09
L_rear_hand02 Rope4_Seg09
L_rear_hand03 Rope4_Seg09
[BasePosition]
#SegmentName Tx, Ty, Tz, Rx, Ry, Rz, BoneLength
MASTER 0.000000 0.000000 0.000000 -90.000000 0.000000 0.000000 10.000000 
root 0.000000 0.000000 0.000000 0.000000 0.000000 0.000000 10.000000 
chest 0.000000 0.000000 0.000000 0.000000 0.000000 0.000000 10.000000 
L_mid_tent01 0.000000 0.000000 0.000000 0.000000 0.000000 0.000000 10.000000 
R_mid_tent01 0.000000 0.000000 0.000000 0.000000 0.000000 0.000000 10.000000 
spine01 0.000000 0.000000 0.000000 0.000000 0.000000 0.000000 10.000000 
Bip01_Neck 0.000000 0.000000 0.000000 0.000000 0.000000 0.000000 10.000000 
L_humerus 0.000000 0.000000 0.000000 0.000000 0.000000 0.000000 10.000000 
R_humerus 0.000000 0.000000 0.000000 0.000000 0.000000 0.000000 10.000000 
weapon_bone 0.000000 0.000000 0.000000 0.000000 0.000000 0.000000 10.000000 
Bip01_Head 0.000000 0.000000 0.000000 0.000000 0.000000 0.000000 10.000000 
eye_left_bone 0.000000 0.000000 0.000000 0.000000 0.000000 0.000000 10.000000 
eye_right_bone 0.000000 0.000000 0.000000 0.000000 0.000000 0.000000 10.000000 
L_forearm 0.000000 0.000000 0.000000 0.000000 0.000000 0.000000 10.000000 
L_front_hand 0.000000 0.000000 0.000000 0.000000 0.000000 0.000000 10.000000 
L_weapon_bone 0.000000 0.000000 0.000000 0.000000 0.000000 0.000000 10.000000 
L_front_hand01_01 0.000000 0.000000 0.000000 0.000000 0.000000 0.000000 10.000000 
L_front_hand02_01 0.000000 0.000000 0.000000 0.000000 0.000000 0.000000 10.000000 
L_front_hand03_01 0.000000 0.000000 0.000000 0.000000 0.000000 0.000000 10.000000 
L_front_hand01_02 0.000000 0.000000 0.000000 0.000000 0.000000 0.000000 10.000000 
L_front_hand02_02 0.000000 0.000000 0.000000 0.000000 0.000000 0.000000 10.000000 
L_front_hand03_02 0.000000 0.000000 0.000000 0.000000 0.000000 0.000000 10.000000 
R_forearm 0.000000 0.000000 0.000000 0.000000 0.000000 0.000000 10.000000 
R_front_hand 0.000000 0.000000 0.000000 0.000000 0.000000 0.000000 10.000000 
R_weapon_bone 0.000000 0.000000 0.000000 0.000000 0.000000 0.000000 10.000000 
R_front_hand01_01 0.000000 0.000000 0.000000 0.000000 0.000000 0.000000 10.000000 
R_front_hand02_01 0.000000 0.000000 0.000000 0.000000 0.000000 0.000000 10.000000 
R_front_hand03_01 0.000000 0.000000 0.000000 0.000000 0.000000 0.000000 10.000000 
R_front_hand01_02 0.000000 0.000000 0.000000 0.000000 0.000000 0.000000 10.000000 
R_front_hand02_02 0.000000 0.000000 0.000000 0.000000 0.000000 0.000000 10.000000 
R_front_hand03_02 0.000000 0.000000 0.000000 0.000000 0.000000 0.000000 10.000000 
null_rope01_connect 0.000000 0.000000 0.000000 0.000000 0.000000 0.000000 10.000000 
Rope1_Seg01 0.000000 0.000000 0.000000 0.000000 0.000000 0.000000 10.000000 
Rope1_Seg02 0.000000 0.000000 0.000000 0.000000 0.000000 0.000000 10.000000 
Rope1_Seg03 0.000000 0.000000 0.000000 0.000000 0.000000 0.000000 10.000000 
Rope1_Seg04 0.000000 0.000000 0.000000 0.000000 0.000000 0.000000 10.000000 
Rope1_Seg05 0.000000 0.000000 0.000000 0.000000 0.000000 0.000000 10.000000 
Rope1_Seg06 0.000000 0.000000 0.000000 0.000000 0.000000 0.000000 10.000000 
Rope1_Seg07 0.000000 0.000000 0.000000 0.000000 0.000000 0.000000 10.000000 
Rope1_Seg09 0.000000 0.000000 0.000000 0.000000 0.000000 0.000000 10.000000 
L_mid_hand01 0.000000 0.000000 0.000000 0.000000 0.000000 0.000000 10.000000 
L_mid_hand02 0.000000 0.000000 0.000000 0.000000 0.000000 0.000000 10.000000 
L_mid_hand03 0.000000 0.000000 0.000000 0.000000 0.000000 0.000000 10.000000 
null_rope02_connect 0.000000 0.000000 0.000000 0.000000 0.000000 0.000000 10.000000 
Rope2_Seg01 0.000000 0.000000 0.000000 0.000000 0.000000 0.000000 10.000000 
Rope2_Seg02 0.000000 0.000000 0.000000 0.000000 0.000000 0.000000 10.000000 
Rope2_Seg03 0.000000 0.000000 0.000000 0.000000 0.000000 0.000000 10.000000 
Rope2_Seg04 0.000000 0.000000 0.000000 0.000000 0.000000 0.000000 10.000000 
Rope2_Seg05 0.000000 0.000000 0.000000 0.000000 0.000000 0.000000 10.000000 
Rope2_Seg06 0.000000 0.000000 0.000000 0.000000 0.000000 0.000000 10.000000 
Rope2_Seg07 0.000000 0.000000 0.000000 0.000000 0.000000 0.000000 10.000000 
Rope2_Seg09 0.000000 0.000000 0.000000 0.000000 0.000000 0.000000 10.000000 
R_mid_hand01 0.000000 0.000000 0.000000 0.000000 0.000000 0.000000 10.000000 
R_mid_hand02 0.000000 0.000000 0.000000 0.000000 0.000000 0.000000 10.000000 
R_mid_hand03 0.000000 0.000000 0.000000 0.000000 0.000000 0.000000 10.000000 
spine02 0.000000 0.000000 0.000000 0.000000 0.000000 0.000000 10.000000 
spine03 0.000000 0.000000 0.000000 0.000000 0.000000 0.000000 10.000000 
pelvis 0.000000 0.000000 0.000000 0.000000 0.000000 0.000000 10.000000 
null_rope03_connect 0.000000 0.000000 0.000000 0.000000 0.000000 0.000000 10.000000 
null_rope04_connect 0.000000 0.000000 0.000000 0.000000 0.000000 0.000000 10.000000 
Rope3_Seg01 0.000000 0.000000 0.000000 0.000000 0.000000 0.000000 10.000000 
Rope3_Seg02 0.000000 0.000000 0.000000 0.000000 0.000000 0.000000 10.000000 
Rope3_Seg03 0.000000 0.000000 0.000000 0.000000 0.000000 0.000000 10.000000 
Rope3_Seg04 0.000000 0.000000 0.000000 0.000000 0.000000 0.000000 10.000000 
Rope3_Seg05 0.000000 0.000000 0.000000 0.000000 0.000000 0.000000 10.000000 
Rope3_Seg06 0.000000 0.000000 0.000000 0.000000 0.000000 0.000000 10.000000 
Rope3_Seg07 0.000000 0.000000 0.000000 0.000000 0.000000 0.000000 10.000000 
Rope3_Seg08 0.000000 0.000000 0.000000 0.000000 0.000000 0.000000 10.000000 
Rope3_Seg09 0.000000 0.000000 0.000000 0.000000 0.000000 0.000000 10.000000 
R_rear_hand01 0.000000 0.000000 0.000000 0.000000 0.000000 0.000000 10.000000 
R_rear_hand02 0.000000 0.000000 0.000000 0.000000 0.000000 0.000000 10.000000 
R_rear_hand03 0.000000 0.000000 0.000000 0.000000 0.000000 0.000000 10.000000 
Rope4_Seg01 0.000000 0.000000 0.000000 0.000000 0.000000 0.000000 10.000000 
Rope4_Seg02 0.000000 0.000000 0.000000 0.000000 0.000000 0.000000 10.000000 
Rope4_Seg03 0.000000 0.000000 0.000000 0.000000 0.000000 0.000000 10.000000 
Rope4_Seg04 0.000000 0.000000 0.000000 0.000000 0.000000 0.000000 10.000000 
Rope4_Seg05 0.000000 0.000000 0.000000 0.000000 0.000000 0.000000 10.000000 
Rope4_Seg06 0.000000 0.000000 0.000000 0.000000 0.000000 0.000000 10.000000 
Rope4_Seg07 0.000000 0.000000 0.000000 0.000000 0.000000 0.000000 10.000000 
Rope4_Seg08 0.000000 0.000000 0.000000 0.000000 0.000000 0.000000 10.000000 
Rope4_Seg09 0.000000 0.000000 0.000000 0.000000 0.000000 0.000000 10.000000 
L_rear_hand01 0.000000 0.000000 0.000000 0.000000 0.000000 0.000000 10.000000 
L_rear_hand02 0.000000 0.000000 0.000000 0.000000 0.000000 0.000000 10.000000 
L_rear_hand03 0.000000 0.000000 0.000000 0.000000 0.000000 0.000000 10.000000 
#Beginning of Data. Separated by tabs
#Fr	Tx	Ty	Tz	Rx	Ry	Rz	SF
[MASTER]
18 0.000000 0.000000 0.000000 0.001660 0.001660 0.001660 0.000000
19 0.000000 0.000000 0.000000 0.001660 0.001660 0.001660 0.000000
[root]
18 -34.739639 -62.822105 1237.331055 -91.611443 -28.302330 -90.206696 1239.411743
19 -39.645386 -62.841415 1219.591797 -91.602310 -28.305260 -90.226692 1221.853149
[chest]
18 -84.512650 -34.090519 0.000000 -6.459633 3.051940 179.944992 91.129311
19 -84.512650 -34.090519 0.000000 -6.077307 2.446524 179.932846 91.129311
[L_mid_tent01]
18 27.299515 22.177443 -249.917999 -8.089573 32.626156 39.863388 252.380875
19 27.299517 22.177437 -249.917999 -9.756224 37.419456 38.111084 252.380875
[R_mid_tent01]
18 23.228794 24.509907 226.238495 -171.548737 -33.181789 38.998051 228.744751
19 23.228794 24.509907 226.238495 -170.618469 -35.891102 35.808201 228.744751
[spine01]
18 -0.361383 -0.195265 0.000000 0.316071 0.424280 13.247445 0.410763
19 -0.361383 -0.195265 0.000000 0.271992 0.419078 13.112777 0.410763
[Bip01_Neck]
18 165.484543 71.581718 0.000119 175.896118 1.177290 24.871183 180.302734
19 165.484543 71.581718 0.000119 175.896118 1.177290 24.871183 180.302734
[L_humerus]
18 -13.983130 -135.272980 -120.471481 178.603592 2.132687 -162.877090 181.680161
19 -13.983130 -135.272980 -120.471481 -161.544083 0.289713 -164.874481 181.680161
[R_humerus]
18 -13.983309 -135.273102 125.287651 -179.002869 1.564491 -155.100800 184.909012
19 -13.983309 -135.273102 125.287651 163.646698 4.658393 -159.366669 184.909012
[weapon_bone]
18 235.964890 -300.705902 0.000000 0.000000 -89.951546 -128.212341 382.234833
19 235.964890 -300.705902 0.000000 0.000000 -89.951546 -128.212341 382.234833
[Bip01_Head]
18 250.067108 139.575424 -3.896513 -0.322791 4.516716 -71.916771 286.408875
19 248.978912 142.983246 0.020494 -0.091579 4.323069 -72.581856 287.114441
[eye_left_bone]
18 -24.626970 125.451866 -64.772606 0.000000 -90.000000 -99.840431 143.318359
19 -24.626970 125.451866 -64.772606 0.000000 -90.000000 -99.840431 143.318359
[eye_right_bone]
18 -24.626970 125.451866 64.327362 0.000000 -89.960434 80.159386 143.117676
19 -24.626970 125.451866 64.327362 0.000000 -89.960434 80.159386 143.117676
[L_forearm]
18 322.776093 0.000000 -0.000119 0.000172 0.002341 -81.618996 322.776093
19 322.776093 0.000000 -0.000119 0.000165 0.002341 -81.939560 322.776093
[L_front_hand]
18 241.149185 -0.042021 -3.300071 -178.818527 -1.932701 -22.864531 241.171753
19 241.149185 -0.042021 -3.300071 -178.705505 -1.864276 -26.145817 241.171753
[L_weapon_bone]
18 156.183838 0.000000 0.000000 0.002028 0.001182 29.501062 156.183838
19 156.183838 0.000000 0.000000 0.002004 0.001222 27.225914 156.183838
[L_front_hand01_01]
18 86.095154 20.947098 -0.655860 0.405585 -0.442306 -4.620490 88.609184
19 86.095154 20.947098 -0.655860 0.405585 -0.442306 -4.620490 88.609184
[L_front_hand02_01]
18 86.935165 -11.437475 24.513514 116.959450 3.630817 1.495453 91.046425
19 86.935165 -11.437475 24.513514 116.959450 3.630817 1.495453 91.046425
[L_front_hand03_01]
18 86.637497 -14.123976 -20.424902 -118.420097 -4.656303 -0.152527 90.126129
19 86.637497 -14.123976 -20.424902 -118.420097 -4.656303 -0.152527 90.126129
[L_front_hand01_02]
18 71.020905 -0.000179 0.000030 0.001534 0.001777 -8.378851 71.020905
19 71.020905 -0.000179 0.000030 0.001534 0.001777 -8.378850 71.020905
[L_front_hand02_02]
18 71.020927 -0.000119 0.000060 0.001534 0.001777 -8.378851 71.020927
19 71.020927 -0.000119 0.000060 0.001534 0.001777 -8.378850 71.020927
[L_front_hand03_02]
18 71.020905 -0.000060 0.000060 0.001534 0.001777 -8.378851 71.020905
19 71.020905 -0.000060 0.000060 0.001534 0.001777 -8.378850 71.020905
[R_forearm]
18 322.776428 -0.000060 0.000030 0.203582 -0.060378 -74.637016 322.776428
19 322.776428 -0.000060 0.000030 0.203568 -0.060422 -74.612137 322.776428
[R_front_hand]
18 238.847015 -0.006795 2.210259 -1.466813 0.912558 -46.810108 238.857239
19 238.847015 -0.006795 2.210259 -1.554319 0.754248 -52.808228 238.857239
[R_weapon_bone]
18 155.664093 0.002503 -0.000030 0.002883 0.002288 -130.465591 155.664078
19 155.664093 0.002503 -0.000030 0.002933 0.002223 -127.925125 155.664078
[R_front_hand01_01]
18 87.624611 14.231146 22.918642 -116.960213 3.496675 -1.324139 91.683487
19 87.624611 14.231146 22.918642 -116.960213 3.496675 -1.324139 91.683487
[R_front_hand02_01]
18 89.356956 14.367283 -19.491137 118.419647 -4.257089 0.609827 92.579636
19 89.356956 14.367283 -19.491137 118.419632 -4.257088 0.609827 92.579636
[R_front_hand03_01]
18 87.286232 -22.307278 -0.143439 -0.387970 -0.231462 4.232001 90.091743
19 87.286232 -22.307278 -0.143439 -0.387970 -0.231462 4.232001 90.091743
[R_front_hand01_02]
18 71.020905 0.000060 0.000119 0.001777 0.001534 8.377221 71.020905
19 71.020905 0.000060 0.000119 0.001777 0.001534 8.377220 71.020905
[R_front_hand02_02]
18 71.020844 -0.000030 -0.000119 0.001777 0.001534 8.377221 71.020836
19 71.020844 -0.000030 -0.000119 0.001777 0.001534 8.377220 71.020836
[R_front_hand03_02]
18 71.020905 0.000000 0.000030 0.001777 0.001534 8.377221 71.020905
19 71.020905 0.000000 0.000030 0.001777 0.001534 8.377220 71.020905
[null_rope01_connect]
18 328.732483 0.000000 -0.000238 -117.548935 -54.983536 -166.128143 328.732483
19 328.732483 0.000000 -0.000238 -116.626572 -50.001118 -166.196060 328.732483
[Rope1_Seg01]
18 0.000000 0.000000 0.000000 -30.844587 22.672836 -106.507271 0.000000
19 0.000000 0.000000 0.000000 -18.797802 19.543783 -105.768707 0.000000
[Rope1_Seg02]
18 139.999863 -0.000179 0.000000 -52.865833 13.753626 13.566830 139.999863
19 139.999863 -0.000179 0.000000 -56.031662 15.911785 11.413724 139.999863
[Rope1_Seg03]
18 139.999924 0.000060 -0.000060 -21.583714 -4.566136 40.671612 139.999924
19 139.999924 0.000060 -0.000060 -22.920902 0.058497 33.240345 139.999924
[Rope1_Seg04]
18 139.999924 -0.000060 -0.000119 -4.873834 -11.699837 26.341377 139.999924
19 139.999924 -0.000060 -0.000119 -7.191500 -14.059462 30.661160 139.999924
[Rope1_Seg05]
18 139.999832 0.000119 -0.000060 -1.475173 -12.030548 15.586677 139.999832
19 139.999832 0.000119 -0.000060 -4.235188 -19.300972 28.642847 139.999832
[Rope1_Seg06]
18 139.999954 0.000119 -0.000060 -3.313414 -16.984632 18.975967 139.999954
19 139.999954 0.000119 -0.000060 0.452932 -7.104521 10.254608 139.999954
[Rope1_Seg07]
18 139.999985 0.000060 0.000000 -0.744065 -9.093143 10.414482 139.999985
19 139.999985 0.000060 0.000000 0.684291 -2.851027 4.398719 139.999985
[Rope1_Seg09]
18 121.602913 0.000119 -0.000089 -89.793175 -1.359789 0.847147 121.602913
19 121.602913 0.000119 -0.000089 -89.793175 -1.359789 0.847147 121.602913
[L_mid_hand01]
18 103.859421 1.038730 8.195221 104.791466 -13.822902 -4.141279 104.187431
19 103.859421 1.038730 8.195221 104.962105 -16.202581 -4.793301 104.187431
[L_mid_hand02]
18 105.572853 -4.139662 -10.864139 -137.292099 14.014200 -14.102406 106.211075
19 105.572853 -4.139662 -10.864139 -137.773270 15.675935 -15.980887 106.211075
[L_mid_hand03]
18 104.641464 17.579376 -3.913581 -18.272455 4.345789 16.819996 106.179977
19 104.641464 17.579376 -3.913581 -18.078373 5.109438 19.164862 106.179977
[null_rope02_connect]
18 328.732849 0.000179 -0.000119 -114.556572 57.356834 -11.074270 328.732849
19 328.732849 0.000179 -0.000119 -111.988693 54.515511 -11.136655 328.732849
[Rope2_Seg01]
18 0.000031 0.000096 0.000055 115.232941 18.880304 -44.671803 0.000115
19 0.000035 0.000097 0.000052 98.354691 18.466417 -43.952255 0.000115
[Rope2_Seg02]
18 139.999741 -0.000060 -0.000119 63.389130 -13.764464 -13.188997 139.999756
19 139.999741 -0.000060 -0.000119 78.962120 -11.877887 -18.435293 139.999756
[Rope2_Seg03]
18 140.000107 0.000030 0.000000 -0.576989 -24.488674 10.155176 140.000107
19 140.000107 0.000030 0.000000 -1.122908 -14.527585 6.894681 140.000107
[Rope2_Seg04]
18 139.999802 0.000000 -0.000060 -1.145228 -19.605450 8.574039 139.999802
19 139.999802 0.000000 -0.000060 0.380118 -11.638677 4.338763 139.999802
[Rope2_Seg05]
18 139.999985 -0.000060 0.000119 0.444246 -22.452240 3.640357 139.999985
19 139.999985 -0.000060 0.000119 1.565251 -22.097116 4.646411 139.999985
[Rope2_Seg06]
18 139.999893 -0.000030 -0.000119 -1.209555 -17.975021 2.401409 139.999893
19 139.999893 -0.000030 -0.000119 -0.334722 -19.311108 4.660255 139.999893
[Rope2_Seg07]
18 139.999893 0.000060 -0.000060 -1.050806 -8.674098 1.450377 139.999893
19 139.999893 0.000060 -0.000060 -0.444612 -9.343749 2.484553 139.999893
[Rope2_Seg09]
18 121.338966 0.000089 -0.000060 33.793236 -1.359788 -0.847141 121.338966
19 121.338966 0.000089 -0.000060 33.793236 -1.359788 -0.847141 121.338966
[R_mid_hand01]
18 104.680779 11.144459 -10.335981 -45.829594 13.966291 15.923307 105.778534
19 104.680779 11.144459 -10.335981 -45.435844 15.512771 17.484768 105.778534
[R_mid_hand02]
18 104.070427 2.443552 8.231699 74.979683 -16.862888 4.983314 104.424065
19 104.070427 2.443552 8.231699 74.796021 -18.948435 5.579895 104.424065
[R_mid_hand03]
18 106.028137 -11.221827 -5.996406 -165.527451 6.433964 -20.763390 106.788818
19 106.028137 -11.221827 -5.996406 -165.771210 6.973324 -22.869076 106.788818
[spine02]
18 129.756927 0.001550 0.000119 -0.166153 -4.183033 -5.530720 129.756927
19 129.756927 0.001550 0.000119 -0.156873 -4.166442 -5.649146 129.756927
[spine03]
18 78.779259 0.058365 -3.283605 1.536259 1.376340 8.035013 78.847679
19 78.800163 0.054738 -3.079540 1.595478 1.099352 9.052615 78.860336
[pelvis]
18 169.435242 0.051022 0.000000 0.010649 1.211552 -2.854016 169.435257
19 169.435242 0.051022 0.000000 0.011178 1.327881 -2.949710 169.435257
[null_rope03_connect]
18 -1.257226 -2.466202 137.391083 141.216797 -89.359283 -35.859436 137.418976
19 -1.257226 -2.466202 137.391083 137.450821 -89.275299 -32.760872 137.418976
[null_rope04_connect]
18 -1.259640 -2.480268 -137.844437 141.216797 -89.359283 -35.859436 137.872513
19 -1.259640 -2.480268 -137.844437 137.450821 -89.275299 -32.760872 137.872513
[Rope3_Seg01]
18 0.000000 0.000000 0.000000 -129.697510 -2.852663 -46.845802 0.000000
19 0.000000 0.000000 0.000000 -130.814377 -4.246272 -51.061161 0.000000
[Rope3_Seg02]
18 139.999924 -0.000119 0.000060 -4.549262 -4.298037 -17.235071 139.999924
19 139.999924 -0.000119 0.000060 -1.496709 -3.224300 -10.093168 139.999924
[Rope3_Seg03]
18 139.999924 -0.000119 0.000119 -36.810246 -4.249193 -31.174793 139.999924
19 139.999924 -0.000119 0.000119 -6.215096 -5.017262 -18.264051 139.999924
[Rope3_Seg04]
18 139.999924 0.000119 0.000000 -79.682144 13.958131 -26.096020 139.999924
19 139.999924 0.000119 0.000000 -40.595692 -3.283341 -26.080603 139.999924
[Rope3_Seg05]
18 139.999924 -0.000238 0.000060 -18.614866 23.451403 4.702238 139.999924
19 139.999924 -0.000238 0.000060 -89.334785 14.230157 -27.771839 139.999924
[Rope3_Seg06]
18 139.999893 -0.000119 -0.000060 -3.225724 11.161672 6.446158 139.999893
19 139.999893 -0.000119 -0.000060 -11.298967 19.088837 8.348583 139.999893
[Rope3_Seg07]
18 139.999771 0.000060 -0.000119 -0.597946 5.183194 3.604156 139.999771
19 139.999771 0.000060 -0.000119 -1.624010 7.751543 5.818511 139.999771
[Rope3_Seg08]
18 139.999985 -0.000060 0.000000 0.040787 2.805859 2.001416 139.999985
19 139.999985 -0.000060 0.000000 -0.258475 3.798989 3.051574 139.999985
[Rope3_Seg09]
18 90.185997 -0.000179 -0.000060 89.793228 -1.359877 -0.847183 90.185997
19 90.185997 -0.000179 -0.000060 89.793228 -1.359877 -0.847183 90.185997
[R_rear_hand01]
18 103.366196 -6.073594 -10.757982 -157.358185 10.054737 -12.115294 104.101845
19 103.366196 -6.073594 -10.757982 -157.907288 11.256098 -15.092482 104.101845
[R_rear_hand02]
18 100.509819 12.039542 -7.992327 -38.001770 8.202547 13.368593 101.543350
19 100.509819 12.039542 -7.992327 -37.601807 10.141744 15.899503 101.543350
[R_rear_hand03]
18 101.539970 5.215704 5.435467 84.177414 -12.362664 5.114734 101.819031
19 101.539970 5.215704 5.435467 84.096489 -15.505945 5.448215 101.819031
[Rope4_Seg01]
18 0.000010 0.000038 -0.000114 46.880322 -7.324960 -103.334427 0.000121
19 0.000010 0.000038 -0.000114 46.878029 -9.253155 -102.597687 0.000121
[Rope4_Seg02]
18 139.999985 0.000060 0.000119 1.238644 -14.946651 0.343006 139.999985
19 139.999985 0.000060 0.000119 0.753700 -11.167990 -0.931732 139.999985
[Rope4_Seg03]
18 139.999924 0.000000 -0.000238 4.829069 -19.733240 1.407282 139.999924
19 139.999924 0.000000 -0.000238 2.419276 -14.662753 -0.883208 139.999924
[Rope4_Seg04]
18 139.999985 0.000000 0.000119 7.845994 -14.397875 3.617137 139.999985
19 139.999985 0.000000 0.000119 4.379062 -12.210199 1.499265 139.999985
[Rope4_Seg05]
18 139.999802 -0.000060 -0.000119 25.966864 -26.219875 4.856596 139.999802
19 139.999802 -0.000060 -0.000119 9.472436 -19.036360 -1.001389 139.999802
[Rope4_Seg06]
18 139.999924 0.000000 0.000060 56.738522 -26.262163 19.392632 139.999924
19 139.999924 0.000000 0.000060 68.517235 -35.199413 0.392917 139.999924
[Rope4_Seg07]
18 139.999802 0.000000 0.000000 14.752907 1.458035 12.809010 139.999802
19 139.999802 0.000000 0.000000 45.041664 -6.758575 19.262215 139.999802
[Rope4_Seg08]
18 139.999924 0.000000 0.000119 2.995500 2.132667 5.448042 139.999924
19 139.999924 0.000000 0.000119 6.556019 3.900942 7.690220 139.999924
[Rope4_Seg09]
18 90.185791 0.000060 0.000060 -135.617828 2.228885 0.850567 90.185791
19 90.185791 0.000060 0.000060 -135.617828 2.228885 0.850567 90.185791
[L_rear_hand01]
18 101.696655 -8.392275 -7.654577 -38.308769 -6.335740 169.028763 102.329041
19 101.696655 -8.392275 -7.654577 -37.971752 -8.386451 166.395752 102.329041
[L_rear_hand02]
18 102.726799 -1.568258 5.773216 84.234558 9.357846 175.196030 102.900848
19 102.726799 -1.568258 5.773216 84.171463 12.660944 174.857391 102.900848
[L_rear_hand03]
18 104.552910 9.721220 -10.420293 -156.893646 -8.879512 -170.705887 105.519653
19 104.552910 9.721220 -10.420293 -157.407806 -10.168632 -167.602097 105.519653
